<svg width="151" height="20" viewBox="0 0 151 20" fill="none" xmlns="http://www.w3.org/2000/svg">
<path d="M150.55 3.59989H135.401C135.231 3.59989 135.146 3.68392 135.146 3.85195V18.8068C135.146 18.9748 135.231 19.0588 135.401 19.0588H136.423C136.593 19.0588 136.678 18.9748 136.678 18.8068V12.3375C136.678 12.1695 136.763 12.0855 136.933 12.0855H143.486C143.656 12.0855 143.742 12.0015 143.742 11.8335V10.8253C143.742 10.6572 143.656 10.5732 143.486 10.5732H136.933C136.763 10.5732 136.678 10.4892 136.678 10.3212V5.44825C136.678 5.28022 136.763 5.19619 136.933 5.19619H150.55C150.72 5.19619 150.805 5.11218 150.805 4.94415V3.93595C150.805 3.76792 150.72 3.59989 150.55 3.59989ZM119.997 3.59989C117.87 3.59989 115.912 4.44006 114.466 5.86833C113.019 7.2966 112.168 9.31298 112.168 11.3294C112.168 15.6142 115.657 19.0588 119.997 19.0588C124.338 19.0588 127.827 15.6142 127.827 11.3294C127.912 7.12857 124.338 3.59989 119.997 3.59989ZM124.423 15.6982C123.231 16.8744 121.7 17.5465 119.997 17.5465C118.295 17.5465 116.763 16.8744 115.572 15.6982C114.381 14.522 113.7 13.0097 113.7 11.3294C113.7 9.64904 114.381 8.13675 115.572 6.96053C116.763 5.7843 118.295 5.11219 119.997 5.11219C121.7 5.11219 123.231 5.7843 124.423 6.96053C125.614 8.13675 126.295 9.64904 126.295 11.3294C126.295 13.0097 125.614 14.606 124.423 15.6982ZM97.1043 3.59989C94.9767 3.59989 93.0193 4.44006 91.5725 5.86833C90.1257 7.2966 89.2747 9.31298 89.2747 11.3294C89.2747 15.6142 92.764 19.0588 97.1043 19.0588C101.445 19.0588 104.934 15.6142 104.934 11.3294C104.934 7.12857 101.36 3.59989 97.1043 3.59989ZM101.53 15.6982C100.338 16.8744 98.8064 17.5465 97.1043 17.5465C95.4022 17.5465 93.8703 16.8744 92.6789 15.6982C91.4874 14.522 90.8066 13.0097 90.8066 11.3294C90.8066 9.64904 91.4874 8.13675 92.6789 6.96053C93.8703 5.7843 95.4022 5.11219 97.1043 5.11219C98.8064 5.11219 100.338 5.7843 101.53 6.96053C102.721 8.13675 103.402 9.64904 103.402 11.3294C103.317 13.0097 102.721 14.606 101.53 15.6982ZM15.5741 3.51587H14.3827C14.2125 3.51587 14.1274 3.59989 14.0423 3.59989C14.0423 3.68391 13.9572 3.76792 13.8721 3.93595L7.99985 15.5302C7.91474 15.6142 7.82962 15.6142 7.74452 15.5302L1.87231 3.93595C1.78721 3.85193 1.70209 3.68391 1.70209 3.59989C1.70209 3.51587 1.53189 3.51587 1.36168 3.51587H0.170219C1.03862e-05 3.51587 0 3.5999 0 3.76793L0.0851097 3.85195C0.170214 3.93597 0.255334 4.18802 0.340439 4.27203L7.40411 18.2186L7.65941 18.6387L7.74452 18.8908C7.82962 18.9748 7.91474 18.9748 7.99985 18.8908L8.08493 18.6387C8.17004 18.5547 8.25516 18.3027 8.34026 18.2186L15.4039 4.27203C15.489 4.18802 15.5742 3.93597 15.6593 3.85195L15.7443 3.76793C15.7443 3.5999 15.7444 3.51587 15.5741 3.51587ZM34.8078 18.8908C34.7227 18.7228 34.6376 18.5547 34.5525 18.4707L27.4888 4.52407L27.2335 4.10399L27.1484 3.85195C27.0633 3.68392 26.9781 3.68392 26.893 3.85195L26.8079 4.10399C26.7228 4.18801 26.6377 4.44005 26.5526 4.52407L19.489 18.4707C19.4039 18.6387 19.3187 18.8068 19.2336 18.8908L19.1485 18.9748C19.0634 19.0588 19.1485 19.2269 19.3187 19.2269H20.5102C20.6804 19.2269 20.7655 19.1428 20.8506 19.1428C20.8506 19.0588 20.9357 18.9748 21.0208 18.8068L22.3825 16.2023V16.2863H31.6589L32.9355 18.8908C33.0206 18.9748 33.1057 19.1428 33.1057 19.2269C33.1057 19.3109 33.2759 19.3109 33.4461 19.3109H34.6376C34.8078 19.3109 34.8078 19.2268 34.8078 19.0588V18.8908ZM23.1484 14.606L26.893 7.12857C26.9781 7.04455 27.0633 7.04455 27.1484 7.12857L30.893 14.606H23.1484ZM57.4456 3.68391H56.4243C56.2541 3.68391 56.169 3.76792 56.169 3.93595V15.7822C56.169 15.9502 56.0839 15.9502 55.9988 15.8662L42.9778 3.93595C42.8927 3.85193 42.7225 3.76793 42.7225 3.68391C42.7225 3.68391 42.5523 3.59989 42.3821 3.59989C42.2119 3.59989 42.1268 3.68392 42.1268 3.76793V18.8908C42.1268 18.9748 42.2119 19.0588 42.3821 19.0588H43.4033C43.5735 19.0588 43.6586 18.9748 43.6586 18.8908V7.04455C43.6586 6.87651 43.7437 6.87651 43.8288 6.96053L56.8499 18.8908C56.935 18.9748 57.1052 19.0588 57.1052 19.1428C57.1052 19.1428 57.2754 19.2269 57.4456 19.2269C57.6158 19.2269 57.7009 19.1428 57.7009 19.0588V4.01997C57.7009 3.76792 57.6158 3.68391 57.4456 3.68391ZM81.8706 3.59989H80.594C80.4238 3.59989 80.3387 3.68391 80.2536 3.68391C80.2536 3.76793 80.1685 3.85194 80.0834 4.01997L74.2112 15.6142C74.1261 15.6982 74.041 15.6982 73.9559 15.6142L68.0836 4.01997C67.9985 3.93595 67.9134 3.76793 67.9134 3.68391C67.9134 3.5999 67.7432 3.59989 67.573 3.59989H66.3815C66.2964 3.59989 66.2114 3.68392 66.2114 3.76793V18.8068C66.2114 18.9748 66.2964 19.0588 66.4667 19.0588H67.4879C67.6581 19.0588 67.7432 18.9748 67.7432 18.8068V6.8765L73.5304 18.3027C73.6155 18.3867 73.7005 18.6387 73.7857 18.7227L73.8708 18.9748C73.9559 19.1428 74.041 19.1428 74.1261 18.9748L74.2112 18.7227C74.2963 18.6387 74.3814 18.3867 74.4665 18.3027L80.2536 6.8765V6.96053V18.8068C80.2536 18.9748 80.3387 19.0588 80.5089 19.0588H81.5302C81.7004 19.0588 81.7855 18.9748 81.7855 18.8068V3.85195C81.7855 3.85195 81.7855 3.85195 81.7855 3.76793C82.0408 3.68392 81.9557 3.59989 81.8706 3.59989Z" fill="#2F2F30"/>
</svg>
