<svg width="170" height="24" viewBox="0 0 170 24" fill="none" xmlns="http://www.w3.org/2000/svg">
<g clip-path="url(#clip0_968_22244)">
<path d="M42.4519 21.4081C38.469 21.4081 36.6233 18.2401 36.6233 15.2641C36.6233 12.1921 38.5662 9.1201 42.549 9.1201C45.6576 9.1201 48.2805 11.6161 48.2805 15.3601C48.1833 18.9121 45.4633 21.4081 42.4519 21.4081ZM47.989 9.6961C46.8233 8.4481 45.1719 6.91211 42.2576 6.91211C37.4976 6.91211 33.9033 10.4641 33.9033 15.3601C33.9033 20.5441 37.789 23.8081 42.1605 23.8081C44.8805 23.8081 46.8233 22.5601 47.989 21.1201H48.0862V23.2321H50.709V7.48809H48.0862V9.6961H47.989Z" fill="#2F2F30"/>
<path d="M71.2052 6.91211C68.3881 6.91211 66.4452 8.5441 65.6681 10.1761C64.9881 8.3521 62.9481 6.91211 60.4224 6.91211C58.3824 6.91211 56.731 7.96809 55.6624 9.40809H55.5652V7.39211H52.9424V23.1361H55.5652V14.4001C55.5652 11.1361 57.3138 9.2161 59.9367 9.2161C62.2681 9.2161 63.7252 11.2321 63.7252 13.8241V23.2321H66.4452V14.4001C66.4452 10.7521 68.5824 9.2161 70.8167 9.2161C73.5367 9.2161 74.7024 11.3281 74.7024 13.8241V23.2321H77.3252V14.0161C77.3252 9.3121 74.7995 6.91211 71.2052 6.91211Z" fill="#2F2F30"/>
<path d="M106.663 21.4081C103.554 21.4081 100.834 18.9121 100.834 15.2641C100.834 11.8081 103.263 9.2161 106.663 9.2161C110.16 9.2161 112.491 11.9041 112.491 15.2641C112.491 18.7201 110.063 21.4081 106.663 21.4081ZM106.663 6.91211C101.806 6.91211 98.1143 10.4641 98.1143 15.3601C98.1143 20.1601 101.806 23.8081 106.663 23.8081C111.617 23.8081 115.211 19.9681 115.211 15.3601C115.211 10.4641 111.617 6.91211 106.663 6.91211Z" fill="#2F2F30"/>
<path d="M125.509 21.4081C122.4 21.4081 119.68 18.9121 119.68 15.2641C119.68 11.8081 122.109 9.2161 125.509 9.2161C129.006 9.2161 131.337 11.9041 131.337 15.2641C131.24 18.7201 128.811 21.4081 125.509 21.4081ZM125.509 6.91211C120.651 6.91211 116.96 10.4641 116.96 15.3601C116.96 20.1601 120.651 23.8081 125.509 23.8081C130.463 23.8081 134.057 19.9681 134.057 15.3601C134.057 10.4641 130.463 6.91211 125.509 6.91211Z" fill="#2F2F30"/>
<path d="M146.589 14.208H138.041V7.48804H136.098V23.2321H138.041V15.9361H146.589V23.2321H148.532V7.48804H146.589V14.208Z" fill="#2F2F30"/>
<path d="M153.388 14.88V9.21605H156.302C158.342 9.21605 159.508 10.2721 159.508 12.0961C159.508 13.6321 158.44 14.88 156.302 14.88H153.388ZM157.76 16.4161C159.8 16.0321 161.451 14.3041 161.451 12.0961C161.451 9.88805 159.994 7.48804 156.011 7.48804H151.445V23.2321H153.388V16.704H155.525L160.382 23.2321H162.811L157.76 16.4161Z" fill="#2F2F30"/>
<path d="M163.395 7.48804H165.92V7.87206H164.852V10.944H164.366V7.87206H163.395V7.48804Z" fill="#2F2F30"/>
<path d="M168.154 9.88804L169.223 7.48804H169.806L170 10.944H169.514L169.417 8.16005L168.349 10.464H167.96L166.891 8.16005L166.794 10.944H166.309L166.503 7.48804H167.086L168.154 9.88804Z" fill="#2F2F30"/>
<path d="M23.0227 21.6C19.7198 21.6 16.9027 19.0081 16.9027 15.5521C16.9027 12.0961 19.3313 9.21604 23.1198 9.21604C27.0056 9.21604 29.2399 12.288 29.2399 15.456C29.2399 18.912 26.8113 21.6 23.0227 21.6ZM23.3141 6.72004C20.2056 6.72004 18.5541 7.77603 17.3884 8.92803L17.097 9.21604V-0.959961H14.4741V15.648C14.4741 20.736 18.457 24 23.0227 24C28.0741 24 31.8627 20.16 31.8627 15.264C31.9598 10.656 27.8798 6.72004 23.3141 6.72004Z" fill="#2F2F30"/>
<path d="M87.8171 21.5999C84.5143 21.5999 81.6971 19.0079 81.6971 15.5519C81.6971 12.0959 84.1257 9.21593 87.9143 9.21593C91.8 9.21593 94.0343 12.2879 94.0343 15.4559C93.9371 18.9119 91.6057 21.5999 87.8171 21.5999ZM88.1085 6.71992C85 6.71992 83.3486 7.77591 82.1828 8.92791L81.8914 9.21593V0.575928H79.2686V15.6479C79.2686 20.7359 83.2514 23.9999 87.8171 23.9999C92.8686 23.9999 96.6571 20.1599 96.6571 15.2639C96.6571 10.6559 92.6743 6.71992 88.1085 6.71992Z" fill="#2F2F30"/>
<path d="M13.2114 10.0801C13.2114 10.0801 12.0457 9.88806 11.0743 9.69606C10.0057 9.50406 9.52 9.40806 8.06286 8.83206C6.70286 8.25606 5.34286 6.91206 4.17715 5.37606C2.91429 3.84006 0 1.44005 0 1.44005C0 1.44005 0.87428 1.53604 1.84571 1.72804C2.62285 1.92004 4.56571 2.49606 6.50857 3.55206C6.99428 3.74406 7.18857 3.93604 7.67428 4.22404C8.35428 4.60804 9.03429 5.28006 9.71429 5.95206C10.4914 6.72006 11.1714 7.39204 11.7543 8.06404C11.0743 6.91204 9.42285 2.68806 6.21714 -0.767939C5.92571 -1.15194 8.45142 0.480061 9.13142 1.15206C11.0743 3.26406 11.3657 4.41606 12.0457 6.33606L13.2114 10.0801Z" fill="#2F2F30"/>
</g>
<defs>
<clipPath id="clip0_968_22244">
<rect width="170" height="24" fill="white"/>
</clipPath>
</defs>
</svg>
