<svg width="115" height="38" viewBox="0 0 115 38" fill="none" xmlns="http://www.w3.org/2000/svg">
<path d="M18.4765 2C8.71522 2 0.801758 10.059 0.801758 20.0001C0.801758 29.9417 8.71522 38 18.4765 38C28.2388 38 36.1515 29.9417 36.1515 20.0001C36.1515 10.0597 28.2388 2.00086 18.4763 2.00086L18.4765 2ZM26.582 27.9613C26.2654 28.4901 25.5858 28.6577 25.0666 28.3332C20.9167 25.7516 15.6926 25.167 9.54024 26.5985C8.94738 26.7361 8.35641 26.3578 8.22133 25.7538C8.08562 25.1498 8.45561 24.548 9.04995 24.4104C15.7828 22.8438 21.558 23.5184 26.2169 26.418C26.7361 26.7425 26.9007 27.4326 26.582 27.9613ZM28.7454 23.0601C28.3465 23.7204 27.498 23.929 26.8501 23.5227C22.0991 20.5486 14.8571 19.6873 9.23758 21.4245C8.5088 21.6487 7.73906 21.2305 7.51787 20.4895C7.29837 19.7474 7.70931 18.9649 8.43683 18.7392C14.8558 16.7557 22.8358 17.7165 28.2916 21.1309C28.9395 21.5372 29.1443 22.4011 28.7454 23.0601ZM28.9311 17.9564C23.2346 14.5105 13.8361 14.1937 8.39736 15.8748C7.524 16.1446 6.60039 15.6425 6.33573 14.753C6.07106 13.8632 6.56368 12.9232 7.43767 12.6528C13.681 10.7226 24.0599 11.0955 30.6183 15.0606C31.4055 15.5355 31.6631 16.5687 31.1966 17.3677C30.7322 18.1677 29.715 18.4314 28.9319 17.9564H28.9311ZM48.8889 18.6167C45.837 17.8755 45.2945 17.3554 45.2945 16.2624C45.2945 15.2298 46.2485 14.5348 47.6689 14.5348C49.0451 14.5348 50.4085 15.0626 51.8395 16.1489C51.8817 16.1817 51.9366 16.1949 51.9893 16.1863C52.0442 16.1781 52.0906 16.1483 52.1223 16.1034L53.6124 13.9641C53.6735 13.876 53.6567 13.7546 53.5744 13.6873C51.8711 12.296 49.9547 11.6196 47.7133 11.6196C44.4186 11.6196 42.116 13.6334 42.116 16.5148C42.116 19.6046 44.102 20.6987 47.5339 21.5432C50.4528 22.2282 50.9466 22.8021 50.9466 23.8279C50.9466 24.9649 49.9505 25.6722 48.3465 25.6722C46.5651 25.6722 45.1109 25.0595 43.4857 23.628C43.4456 23.5914 43.3907 23.5764 43.3401 23.5786C43.2852 23.5828 43.2367 23.6086 43.2029 23.6495L41.5313 25.6743C41.4617 25.7603 41.4702 25.8849 41.5503 25.958C43.4414 27.6776 45.7673 28.5846 48.2789 28.5846C51.8289 28.5846 54.1231 26.6093 54.1231 23.5506C54.1295 20.9698 52.6119 19.5404 48.8952 18.6195L48.8889 18.6167ZM62.156 15.5516C60.6175 15.5516 59.3552 16.1689 58.3126 17.4338V16.01C58.3126 15.8976 58.224 15.8061 58.1142 15.8061H55.3811C55.2713 15.8061 55.1827 15.8976 55.1827 16.01V31.8304C55.1827 31.9422 55.2713 32.0345 55.3811 32.0345H58.1142C58.224 32.0345 58.3126 31.9422 58.3126 31.8304V26.8371C59.3552 28.0258 60.6175 28.6083 62.156 28.6083C65.0159 28.6083 67.9116 26.3664 67.9116 22.0806C67.9159 17.7939 65.0202 15.5513 62.1581 15.5513L62.156 15.5516ZM64.733 22.0806C64.733 24.262 63.414 25.786 61.5228 25.786C59.655 25.786 58.2451 24.1933 58.2451 22.0806C58.2451 19.9677 59.655 18.3753 61.5228 18.3753C63.3823 18.3751 64.733 19.9332 64.733 22.0806ZM75.3304 15.5516C71.6474 15.5516 68.7622 18.4396 68.7622 22.1272C68.7622 25.7753 71.6284 28.632 75.2861 28.632C78.9817 28.632 81.8753 25.7538 81.8753 22.0806C81.8753 18.4198 79.0007 15.552 75.3304 15.552V15.5516ZM75.3304 25.8075C73.3718 25.8075 71.8943 24.2041 71.8943 22.0795C71.8943 19.9453 73.321 18.3966 75.2861 18.3966C77.2573 18.3966 78.7432 19.9995 78.7432 22.1262C78.7432 24.26 77.3079 25.8075 75.3304 25.8075ZM89.7398 15.8061H86.7318V12.6752C86.7318 12.5629 86.6431 12.4714 86.5334 12.4714H83.8002C83.6904 12.4714 83.5997 12.5629 83.5997 12.6752V15.8061H82.2868C82.1772 15.8061 82.0885 15.8976 82.0885 16.01V18.4018C82.0885 18.5139 82.1772 18.6057 82.2868 18.6057H83.5997V24.7951C83.5997 27.2949 84.8217 28.5631 87.2341 28.5631C88.2134 28.5631 89.026 28.3569 89.7919 27.9141C89.8555 27.8797 89.8935 27.8108 89.8935 27.7377V25.4593C89.8935 25.3906 89.8573 25.324 89.7981 25.2874C89.7398 25.2487 89.6655 25.2465 89.6046 25.2788C89.0787 25.5475 88.5701 25.6722 88.0003 25.6722C87.1243 25.6722 86.7318 25.2659 86.7318 24.3588V18.6068H89.7398C89.8494 18.6068 89.9377 18.5153 89.9377 18.4029V16.0113C89.9421 15.8989 89.8538 15.8073 89.7415 15.8073L89.7398 15.8061ZM100.216 15.8183V15.4338C100.216 14.3025 100.643 13.798 101.597 13.798C102.167 13.798 102.624 13.9132 103.137 14.0874C103.201 14.1075 103.266 14.0974 103.316 14.059C103.369 14.0205 103.399 13.9588 103.399 13.8935V11.5484C103.399 11.4587 103.345 11.3794 103.258 11.353C102.717 11.189 102.025 11.0207 100.987 11.0207C98.4648 11.0207 97.1286 12.4682 97.1286 15.2051V15.794H95.8154C95.7058 15.794 95.6156 15.8856 95.6156 15.9978V18.4018C95.6156 18.5139 95.7058 18.6057 95.8154 18.6057H97.1286V28.1505C97.1286 28.2644 97.2196 28.3547 97.3292 28.3547H100.06C100.172 28.3547 100.26 28.2644 100.26 28.1505V18.6063H102.813L106.721 28.1505C106.278 29.1521 105.841 29.352 105.246 29.352C104.765 29.352 104.256 29.2058 103.739 28.9157C103.69 28.8899 103.631 28.8856 103.581 28.9006C103.528 28.92 103.483 28.9587 103.462 29.0103L102.536 31.0802C102.492 31.1791 102.53 31.293 102.623 31.3446C103.589 31.8777 104.461 32.1055 105.539 32.1055C107.557 32.1055 108.673 31.1469 109.655 28.5718L114.396 16.0969C114.42 16.0341 114.412 15.9631 114.374 15.9075C114.338 15.8523 114.277 15.819 114.212 15.819H111.366C111.28 15.819 111.204 15.8742 111.177 15.9557L108.262 24.4319L105.071 15.9501C105.041 15.8712 104.967 15.819 104.885 15.819H100.216V15.8183ZM94.1425 15.8061H91.4091C91.2995 15.8061 91.2085 15.8976 91.2085 16.01V28.1505C91.2085 28.2644 91.2995 28.3547 91.4091 28.3547H94.1425C94.2521 28.3547 94.3422 28.2644 94.3422 28.1505V16.0109C94.3422 15.8985 94.2538 15.8069 94.1425 15.8069V15.8061ZM92.7913 10.2778C91.7087 10.2778 90.8303 11.1703 90.8303 12.2728C90.8303 13.3758 91.7087 14.2694 92.7913 14.2694C93.8738 14.2694 94.7496 13.3758 94.7496 12.2728C94.7496 11.1705 93.8721 10.2778 92.7913 10.2778Z" fill="#2F2F30"/>
</svg>
