<svg width="171" height="36" viewBox="0 0 171 36" fill="none" xmlns="http://www.w3.org/2000/svg">
<g clip-path="url(#clip0_854_20497)">
<path fill-rule="evenodd" clip-rule="evenodd" d="M42.1286 28.0541C39.2921 28.0541 37.3386 25.6946 37.3386 22.6231C37.3386 19.5516 39.2921 17.1921 42.1286 17.1921C44.9652 17.1921 46.9188 19.5516 46.9188 22.6231C46.9188 25.6946 44.9955 28.0541 42.1286 28.0541ZM42.1286 14.5913C38.1853 14.5913 34.5625 17.9585 34.5625 22.611C34.5625 27.2636 38.1913 30.6307 42.1286 30.6307C46.0659 30.6307 49.6949 27.2696 49.6949 22.611C49.6949 17.9524 46.0659 14.5913 42.1286 14.5913Z" fill="#1E2423"/>
<path fill-rule="evenodd" clip-rule="evenodd" d="M70.1859 14.5909C69.2362 14.5882 68.3 14.8152 67.4573 15.2524C66.6147 15.6896 65.8908 16.3239 65.3475 17.1012H64.8153C64.3899 16.3851 63.797 15.7824 63.0872 15.3448C62.3776 14.9072 61.5721 14.6476 60.7399 14.5883C59.9077 14.529 59.0735 14.6717 58.3086 15.0042C57.5437 15.3368 56.871 15.8492 56.3479 16.4978H55.9064L55.3682 14.7417H53.5537V30.4312H56.3298V21.4943C56.3298 18.6098 58.0958 16.9745 60.1401 16.9745C62.8557 16.9745 63.2307 19.8348 63.2307 22.8762V30.4312H66.0068V21.277C66.0974 18.5133 67.8212 16.9745 69.817 16.9745C72.5326 16.9745 72.9076 19.8348 72.9076 22.8762V30.4312H75.6837V21.9227C75.6837 17.59 73.7906 14.5788 70.1678 14.5788" fill="#1E2423"/>
<path fill-rule="evenodd" clip-rule="evenodd" d="M87.641 14.5907C86.7758 14.5551 85.9134 14.7108 85.1156 15.0467C84.3178 15.3827 83.6043 15.8905 83.0262 16.5338H82.6513L82.0888 14.7234H80.2744V30.4129H83.0323V21.494C83.0323 18.7363 84.9194 16.9742 87.266 16.9742C90.3686 16.9742 90.8404 20.082 90.8404 22.8759V30.431H93.5984V21.9225C93.5984 17.5596 91.6266 14.5786 87.641 14.5786" fill="#1E2423"/>
<path d="M101.328 14.7483H98.5703V30.4438H101.328V14.7483Z" fill="#1E2423"/>
<path d="M99.9486 11.5679C100.973 11.5679 101.805 10.7385 101.805 9.71536C101.805 8.69222 100.973 7.86279 99.9486 7.86279C98.9229 7.86279 98.0918 8.69222 98.0918 9.71536C98.0918 10.7385 98.9229 11.5679 99.9486 11.5679Z" fill="#1E2423"/>
<path fill-rule="evenodd" clip-rule="evenodd" d="M111.645 21.1989C110.103 20.7885 108.621 20.2817 108.621 18.8394C108.621 17.548 109.753 16.7274 111.204 16.7274C112.873 16.7274 114.108 17.8015 114.108 18.9601H116.672C116.672 16.7937 114.748 14.4946 111.228 14.4946C108.331 14.4946 106.027 16.0696 106.027 18.8696C106.027 22.0135 108.96 22.8643 111.101 23.4316C112.837 23.9023 114.38 24.4031 114.38 26.0083C114.38 27.6135 112.994 28.2712 111.512 28.2712C109.777 28.2712 108.108 27.2634 108.108 25.3143H105.556C105.556 28.1807 107.921 30.5401 111.542 30.5401C114.634 30.5401 116.986 28.8082 116.986 25.8815C116.986 22.6411 114.053 21.8265 111.658 21.1989" fill="#1E2423"/>
<path fill-rule="evenodd" clip-rule="evenodd" d="M123.125 20.9454C123.626 18.4291 125.393 16.824 127.727 16.824C130.062 16.824 131.677 18.5256 132.052 20.9454H123.125ZM127.763 14.4946C123.82 14.4946 120.282 17.5118 120.282 22.3937C120.282 27.2755 123.82 30.5401 127.793 30.5401C129.251 30.535 130.673 30.0987 131.881 29.2866C133.089 28.4746 134.028 27.3231 134.58 25.9781H131.677C131.264 26.625 130.688 27.1516 130.006 27.5045C129.324 27.8574 128.561 28.0241 127.793 27.9876C125.078 27.9876 123.252 26.1772 122.998 23.2384H134.925C135.239 17.2945 131.549 14.4946 127.763 14.4946Z" fill="#1E2423"/>
<path fill-rule="evenodd" clip-rule="evenodd" d="M146.193 14.5907C145.329 14.5547 144.467 14.7103 143.67 15.0463C142.873 15.3823 142.161 15.8903 141.584 16.5338H141.203L140.64 14.7234H138.826V30.4129H141.591V21.494C141.591 18.7363 143.471 16.9742 145.824 16.9742C148.933 16.9742 149.398 20.082 149.398 22.8759V30.431H152.163V21.9225C152.163 17.5596 150.185 14.5786 146.199 14.5786" fill="#1E2423"/>
<path fill-rule="evenodd" clip-rule="evenodd" d="M163.315 28.0182C160.963 28.0182 158.61 25.9786 158.61 22.5873C158.61 19.196 160.963 17.1563 163.315 17.1563C165.39 17.1563 167.833 18.7313 167.833 22.5873C167.833 26.4433 165.414 28.0182 163.315 28.0182ZM167.833 8.10474V17.0598C167.328 16.2691 166.626 15.6223 165.797 15.1824C164.967 14.7425 164.037 14.5245 163.098 14.5495C159.112 14.5495 155.84 17.9046 155.84 22.5572C155.84 27.2096 159.106 30.5648 163.098 30.5648C163.965 30.5904 164.826 30.407 165.607 30.0299C166.388 29.6527 167.067 29.093 167.585 28.3985H168.081L168.686 30.4079H170.5V8.10474H167.833Z" fill="#1E2423"/>
<path d="M19.116 8.17701H4.40102C3.88902 8.17622 3.38188 8.27614 2.90863 8.47108C2.43536 8.66603 2.00527 8.95216 1.64295 9.3131C1.28063 9.67404 0.993179 10.1027 0.797061 10.5746C0.600942 11.0465 0.499999 11.5523 0.5 12.0632V26.7449C0.499999 27.2557 0.600942 27.7615 0.797061 28.2334C0.993179 28.7053 1.28063 29.134 1.64295 29.4949C2.00527 29.8559 2.43536 30.142 2.90863 30.337C3.38188 30.5319 3.88902 30.6318 4.40102 30.631H11.1023V27.4147C11.1023 24.313 10.7152 21.9354 8.40486 21.2475V18.7071C12.1607 19.045 14.0235 21.8328 14.0235 26.413V30.6371H19.116C20.1491 30.6371 21.1397 30.2276 21.8701 29.4989C22.6007 28.77 23.011 27.7816 23.011 26.7509V12.0632C23.011 11.0325 22.6007 10.044 21.8701 9.31523C21.1397 8.58644 20.1491 8.17701 19.116 8.17701ZM11.8583 16.2873C11.431 16.2884 11.013 16.1631 10.6571 15.9271C10.3013 15.6911 10.0235 15.3551 9.85919 14.9616C9.69484 14.568 9.65122 14.1347 9.73384 13.7164C9.81647 13.2981 10.0216 12.9137 10.3234 12.6118C10.6251 12.3099 11.0098 12.1041 11.4288 12.0205C11.8478 11.9369 12.2822 11.9792 12.6771 12.1421C13.0721 12.305 13.4096 12.5811 13.6471 12.9355C13.8847 13.2899 14.0114 13.7066 14.0114 14.133C14.0114 14.7033 13.7847 15.2503 13.3812 15.6541C12.9775 16.058 12.4299 16.2856 11.8583 16.2873Z" fill="#1E2423"/>
</g>
<defs>
<clipPath id="clip0_854_20497">
<rect width="170" height="36" fill="white" transform="translate(0.5)"/>
</clipPath>
</defs>
</svg>
