<svg width="183" height="44" viewBox="0 0 183 44" fill="none" xmlns="http://www.w3.org/2000/svg">
<g clip-path="url(#clip0_854_20476)">
<mask id="mask0_854_20476" style="mask-type:luminance" maskUnits="userSpaceOnUse" x="0" y="0" width="31" height="44">
<path d="M30.3381 0H0.5V43.8439H30.3381V0Z" fill="white"/>
</mask>
<g mask="url(#mask0_854_20476)">
<path fill-rule="evenodd" clip-rule="evenodd" d="M29.7058 16.8869C29.8634 17.6303 30.0357 18.4984 30.1341 19.3697C30.3274 21.0282 30.3631 22.7013 30.2408 24.3666C30.0537 27.4746 29.3021 30.7237 28.0058 34.0385C27.9574 34.1648 27.8719 34.2734 27.7606 34.3501C27.6493 34.4269 27.5174 34.4681 27.3822 34.4685L23.6867 34.4438C23.6237 34.443 23.5636 34.4174 23.5194 34.3725C23.4752 34.3277 23.4504 34.2672 23.4504 34.2043V30.4201H22.0572V30.4284L22.1425 32.7339V34.2108C22.1425 34.2424 22.1363 34.2737 22.1241 34.3029C22.112 34.3321 22.0942 34.3586 22.0718 34.3808C22.0493 34.4031 22.0227 34.4207 21.9935 34.4326C21.9642 34.4446 21.9329 34.4506 21.9013 34.4504L17.7299 34.4225C17.6727 34.422 17.617 34.405 17.5692 34.3736C17.5215 34.3421 17.4838 34.2976 17.4608 34.2453C17.3508 33.9909 17.2196 33.6529 17.0653 33.2016L17.0308 33.1048C16.9947 33.0014 16.9603 32.898 16.9258 32.793C16.8323 32.5026 16.7305 32.1776 16.6206 31.8084C16.4778 31.3145 16.3465 30.8091 16.2333 30.2954H12.6461L12.6379 30.3036L12.6035 31.5459V31.5869C12.6035 31.623 12.5739 32.3598 12.5362 33.1508V33.2344L12.5333 33.2961C12.5194 33.5911 12.5055 33.888 12.4902 34.1534C12.4865 34.2174 12.4584 34.2775 12.4117 34.3215C12.365 34.3654 12.3033 34.3898 12.2392 34.3897L9.21643 34.37V34.3782C9.287 34.5866 9.35756 34.7737 9.42976 34.9526C9.73903 35.7112 10.1533 36.4227 10.6605 37.0661C11.1633 37.6922 11.7747 38.2225 12.4656 38.6316C13.17 39.039 13.9386 39.3237 14.7384 39.4735C15.5784 39.6253 16.4299 39.7043 17.2836 39.7098H17.6249C17.9301 39.7098 18.2386 39.7048 18.5865 39.6917C18.7184 39.688 18.8485 39.6816 18.9788 39.6751C19.0219 39.673 19.065 39.6708 19.1083 39.6688C19.3807 39.654 19.6613 39.6409 19.9551 39.6409C20.2307 39.6353 20.506 39.6618 20.7756 39.7196C20.9484 39.7593 21.1143 39.8245 21.2679 39.9133C21.4493 40.017 21.6043 40.1614 21.7208 40.335C21.852 40.5407 21.9162 40.7821 21.9046 41.0258C21.8939 41.2146 21.8489 41.3998 21.7716 41.5723C21.6441 41.8475 21.466 42.0964 21.2465 42.3058C20.8697 42.6651 20.4333 42.956 19.9567 43.1657C19.5099 43.3679 19.0436 43.5241 18.5652 43.6317C17.842 43.7939 17.1024 43.8715 16.3613 43.8631C16.1611 43.8631 15.9511 43.8582 15.7377 43.8483C15.4079 43.8483 15.0633 43.8221 14.7351 43.7958L14.3675 43.7679L14.1115 43.7384C14.0384 43.7287 13.9648 43.7191 13.8908 43.7095C13.591 43.6706 13.2849 43.6309 12.9809 43.5743C11.1302 43.2832 9.34964 42.6511 7.7297 41.7101C6.10027 40.7449 4.68748 39.4539 3.57965 37.9178C2.48229 36.3897 1.66753 34.6774 1.17396 32.8619C0.681755 31.0636 0.460523 29.202 0.517567 27.3384C0.553518 25.4961 0.792915 23.6635 1.2314 21.8739C1.66312 20.0644 2.36927 18.3317 3.32529 16.736C4.3706 15.0244 5.7359 13.646 7.27843 12.7484C8.91946 11.8007 10.784 11.3089 12.6789 11.324H12.843C13.7491 11.3333 14.6488 11.4765 15.5129 11.749C16.4025 12.0262 17.2626 12.39 18.0811 12.8353C18.8898 13.2726 19.6668 13.7661 20.4063 14.3122C20.5934 14.4517 20.7723 14.5896 20.9462 14.7258H20.9577C20.3916 13.2177 19.7959 12.0903 19.0788 11.1435C18.5079 10.3705 17.7812 9.72587 16.9455 9.25142C16.0943 8.79698 15.1587 8.52271 14.1969 8.4457C13.7278 8.40084 13.2568 8.37948 12.7856 8.3817C12.2753 8.3817 11.76 8.40139 11.1446 8.43093L9.56596 8.49657L9.34443 8.50478C9.16064 8.51626 8.97685 8.51626 8.78978 8.51626C8.47491 8.51972 8.16032 8.49611 7.84949 8.4457C7.45524 8.38757 7.08911 8.20737 6.80254 7.93043C6.5363 7.64252 6.36451 7.28006 6.31025 6.89169C6.26171 6.58848 6.24357 6.28119 6.25609 5.97438C6.25983 5.64666 6.31521 5.32158 6.42019 5.01112C6.53398 4.68404 6.71251 4.38324 6.94511 4.12667C7.17771 3.87011 7.45962 3.66304 7.77401 3.51782C8.05734 3.38208 8.35675 3.28283 8.66506 3.22244C8.794 3.19633 8.92444 3.17824 9.05562 3.16829C9.07511 2.95248 9.11132 2.73851 9.16392 2.5283C9.25634 2.11967 9.41015 1.72739 9.62012 1.36484C9.85142 0.956088 10.1822 0.612346 10.5818 0.365485C10.9692 0.137982 11.4109 0.0194764 11.8601 0.022518H11.9782C12.4398 0.0263911 12.8941 0.13882 13.3042 0.350715C13.733 0.592105 14.0769 0.960037 14.2888 1.40423C14.4731 1.79098 14.5886 2.2069 14.6301 2.63333C14.6481 2.79907 14.6645 2.97465 14.6645 3.16993C15.0026 3.14367 15.3439 3.12891 15.6836 3.12891C16.8415 3.13425 17.9942 3.28419 19.1149 3.57525C20.8022 4.01442 22.3666 4.83396 23.6883 5.97109C24.946 7.11853 26.0271 8.44568 26.8964 9.90946C27.7673 11.3494 28.4783 12.8803 29.0166 14.4747C29.3071 15.3001 29.5483 16.1436 29.7058 16.8869ZM26.9933 32.9722C27.9992 30.1727 28.602 27.2443 28.7836 24.275C28.9623 21.1267 28.5436 17.973 27.5496 14.9805C27.05 13.491 26.3898 12.0604 25.5804 10.7139C24.7924 9.37948 23.8133 8.16761 22.6742 7.11686C22.1099 6.61576 21.4906 6.1803 20.8281 5.81884C20.155 5.45955 19.4489 5.16609 18.7194 4.94255C17.982 4.71279 17.2259 4.54806 16.4598 4.45026C15.8335 4.36163 15.2018 4.31722 14.5693 4.31734H14.1427H14.0853C13.9459 4.31783 13.8118 4.26392 13.7116 4.16707C13.6114 4.07022 13.5529 3.93809 13.5487 3.79879V3.76597C13.5142 3.20147 13.4387 2.47779 13.1565 1.96088C12.9316 1.54571 12.5198 1.3291 11.9306 1.3291H11.8781C11.4187 1.3291 11.0347 1.56705 10.7393 2.03637C10.4188 2.57806 10.1997 3.17362 10.0927 3.79386L10.073 3.89068C10.045 3.99999 9.98142 4.09687 9.8923 4.16609C9.80318 4.23531 9.69358 4.27293 9.58073 4.27303C9.38546 4.29765 9.01459 4.37641 8.89316 4.40267C8.68615 4.44459 8.48539 4.51298 8.29584 4.60615C8.13116 4.68062 7.98364 4.78829 7.8625 4.92241C7.74136 5.05654 7.64923 5.21423 7.59186 5.38562C7.53294 5.57748 7.50415 5.77732 7.50653 5.97802C7.49985 6.19774 7.51469 6.41758 7.55084 6.63441C7.6214 6.98066 7.71821 7.0824 8.06939 7.14476C8.27252 7.175 8.47777 7.18872 8.68311 7.18578C8.92598 7.18578 9.17377 7.1743 9.41828 7.16117L11.0708 7.07091C11.6254 7.04466 12.2162 7.0184 12.8102 7.0184C13.3154 7.01555 13.8204 7.03856 14.3232 7.08732C15.4663 7.17834 16.5782 7.5052 17.5888 8.0473C18.5975 8.61006 19.4711 9.38627 20.1487 10.3217C20.8018 11.2186 21.3332 12.198 21.729 13.2345C22.1234 14.2411 22.4367 15.2777 22.666 16.3343V16.3556C22.6822 16.4259 22.6844 16.4987 22.6724 16.5698C22.6603 16.6409 22.6343 16.7089 22.5959 16.7699C22.5575 16.8309 22.5073 16.8837 22.4484 16.9253C22.3894 16.9668 22.3228 16.9963 22.2524 17.012C22.2136 17.0204 22.174 17.0248 22.1343 17.0251C22.0585 17.0248 21.9835 17.0088 21.9141 16.9784C21.8447 16.9479 21.7822 16.9035 21.7306 16.8479C20.4848 15.6412 19.0803 14.6099 17.5559 13.7825C15.9051 12.8981 14.3413 12.4484 12.907 12.4484H12.7134C11.0168 12.4519 9.35199 12.9098 7.89216 13.7743C6.45452 14.6733 5.26119 15.9134 4.41819 17.3845C3.55635 18.8774 2.93136 20.4949 2.56552 22.1795C2.18881 23.8769 1.99625 25.6099 1.99117 27.3486C1.97176 29.0666 2.1927 30.7788 2.64757 32.4356C3.09238 34.0825 3.81914 35.6399 4.79562 37.0386C5.76965 38.4283 7.01365 39.6076 8.45338 40.506C9.91521 41.3931 11.5287 42.0018 13.2123 42.3012C14.0625 42.4604 14.9239 42.5526 15.7886 42.5769C16.0265 42.595 16.2464 42.595 16.4598 42.595C17.078 42.6014 17.695 42.5387 18.2993 42.4079C18.9212 42.2717 19.786 41.9878 20.3735 41.4036C20.4778 41.3024 20.5634 41.1835 20.6262 41.0525C20.6313 41.0392 20.6313 41.0246 20.6262 41.0114C20.6164 40.9901 20.5721 40.9556 20.4802 40.931C20.3515 40.9025 20.2197 40.8904 20.088 40.8949H19.9731C19.604 40.9031 19.2234 40.9292 18.8185 40.9569L18.8129 40.9573C18.7694 40.9603 18.7258 40.9634 18.682 40.9664C18.2256 40.9983 17.7558 41.0311 17.2901 41.0311H17.0062C16.164 41.0456 15.3221 40.9907 14.4889 40.867C13.5283 40.7115 12.6008 40.3953 11.7452 39.9317C10.8755 39.4521 10.107 38.8084 9.48227 38.0363C8.86985 37.2796 8.37931 36.432 8.02836 35.524C7.67867 34.643 7.42984 33.7254 7.28663 32.7884C6.99796 30.9451 7.06425 29.0636 7.48191 27.2452C7.50036 27.1677 7.54441 27.0986 7.60693 27.0492C7.66946 26.9998 7.74682 26.9728 7.82652 26.9728C7.85406 26.973 7.88153 26.9757 7.90857 26.981C7.98502 26.9992 8.05327 27.0422 8.10258 27.1034C8.15189 27.1646 8.17947 27.2405 8.18097 27.319C8.20402 29.0667 8.38749 30.8085 8.72906 32.5226C8.77501 32.7474 8.83244 32.987 8.90137 33.2496L11.1774 33.2348C11.2004 33.2349 11.2232 33.2302 11.2443 33.2209C11.2653 33.2117 11.2842 33.1981 11.2997 33.1811C11.3152 33.1641 11.3269 33.144 11.3341 33.1221C11.3413 33.1003 11.3438 33.0772 11.3415 33.0543C11.3087 32.5456 11.2939 32.032 11.2808 31.5397L11.2168 29.2636C11.2103 29.0828 11.2738 28.9065 11.394 28.7713L11.4269 28.7336C11.5599 28.58 11.6796 28.4153 11.7846 28.2413C11.9027 28.0576 12.0075 27.8656 12.098 27.6669C12.2798 27.2683 12.412 26.8489 12.4919 26.4181C12.5753 25.9886 12.6035 25.5502 12.5756 25.1136C12.544 24.6636 12.4682 24.2178 12.3491 23.7827C12.1451 22.9199 11.6757 22.1428 11.0068 21.5608C10.2981 20.9594 9.43411 20.5703 8.51409 20.4384C8.46825 20.4327 8.42412 20.4174 8.38459 20.3936C8.34506 20.3697 8.31101 20.3377 8.28468 20.2998C8.25835 20.2618 8.24033 20.2187 8.23179 20.1733C8.22325 20.128 8.22439 20.0813 8.23513 20.0363C8.2548 19.9636 8.29732 19.8992 8.35641 19.8525C8.41551 19.8058 8.48805 19.7794 8.56332 19.7771C8.65358 19.7672 8.74383 19.7672 8.83244 19.7672C9.28483 19.7737 9.73464 19.8366 10.1715 19.9543C10.718 20.0937 11.2356 20.3281 11.7009 20.6468C11.9006 20.7757 12.088 20.923 12.2605 21.0866L12.3622 21.1752C12.5794 21.3739 12.7793 21.5907 12.9595 21.8234C13.2892 22.2867 13.5491 22.7959 13.7308 23.3347C13.9047 23.8624 14.0257 24.406 14.0918 24.9577C14.1565 25.5306 14.1377 26.1099 14.036 26.6774C13.9382 27.2479 13.7569 27.8008 13.4978 28.3184C13.4083 28.5013 13.3092 28.6793 13.2008 28.8517C13.1909 28.8616 13.2008 28.8616 13.2008 28.8616H16.0003C15.9429 28.4989 15.8985 28.1674 15.8641 27.8606C15.7952 27.173 15.7525 26.4575 15.7361 25.7273C15.7349 25.6693 15.7451 25.6116 15.7663 25.5575C15.7874 25.5034 15.8189 25.4541 15.8592 25.4122C15.899 25.3702 15.9468 25.3365 15.9997 25.3131C16.0527 25.2897 16.1098 25.2771 16.1677 25.276C16.2771 25.2743 16.3833 25.3131 16.466 25.3849C16.5487 25.4566 16.6019 25.5563 16.6157 25.6649C16.6977 26.3673 16.8027 27.0483 16.9307 27.6932C17.0587 28.3676 17.213 29.0388 17.3951 29.6804C17.5773 30.322 17.7922 30.9702 18.0384 31.6053C18.1598 31.9204 18.2895 32.2371 18.4224 32.5456L18.6308 33.0116L18.703 33.1659L20.4523 33.1544C20.505 33.1539 20.5556 33.1341 20.5947 33.0987C20.6337 33.0633 20.6583 33.0148 20.664 32.9624L20.961 24.8986C20.9657 24.7787 21.0171 24.6655 21.1041 24.583C21.1912 24.5005 21.3071 24.4554 21.427 24.4572H21.4369C21.5547 24.4587 21.6674 24.5053 21.752 24.5874C21.8365 24.6695 21.8864 24.7809 21.8914 24.8986L22.0424 28.9781H24.1757C25.2963 28.8454 25.6466 26.6089 25.8779 25.1319L25.879 25.125L25.8799 25.1191C26.0746 23.879 26.1817 23.1969 26.6486 23.1969C26.7428 23.1984 26.8338 23.2307 26.9079 23.2888C26.9607 23.3352 27.0012 23.3939 27.0259 23.4598C27.0505 23.5256 27.0584 23.5965 27.0491 23.6662C27.0031 24.6951 26.6815 29.8921 24.8928 32.114V32.9345C24.8928 32.988 24.9141 33.0394 24.9519 33.0772C24.9898 33.1151 25.0411 33.1363 25.0946 33.1363L26.7783 33.1249C26.8255 33.1246 26.8714 33.1098 26.9098 33.0825C26.9483 33.0551 26.9774 33.0167 26.9933 32.9722Z" fill="#2D2F34"/>
<path d="M11.8216 4.81366C12.1216 4.72245 12.2787 4.36523 12.1724 4.01578C12.0662 3.66634 11.7369 3.457 11.4368 3.54821C11.1368 3.63942 10.9797 3.99664 11.086 4.34608C11.1922 4.69553 11.5215 4.90487 11.8216 4.81366Z" fill="#2D2F34"/>
<path d="M22.6364 16.2722C23.0729 18.9355 20.1027 18.3464 19.1903 20.0464C18.7554 20.8505 17.3261 23.4515 16.015 22.6934C13.6569 21.3281 17.4213 16.1589 16.5073 15.9112C15.3783 15.6026 13.8194 19.7987 12.2063 19.2194C9.99425 18.4251 11.9716 15.2154 11.2972 14.7887C9.97291 13.9682 9.05068 18.3185 7.36867 18.3185C6.41361 18.3185 5.50451 17.2043 5.42902 16.1032C5.42881 16.0929 5.42516 16.083 5.41868 16.0751C5.41219 16.0671 5.40323 16.0616 5.39323 16.0593C5.38323 16.0571 5.37276 16.0582 5.36349 16.0626C5.35421 16.0669 5.34667 16.0743 5.34205 16.0835C2.9938 20.0678 8.8915 21.2197 8.6913 23.0183C8.44351 25.2516 5.05159 24.6724 5.05159 25.9967C5.05159 27.3209 7.3818 29.1063 4.08506 31.576C4.07454 31.5843 4.06174 31.5891 4.04839 31.5899C4.03503 31.5907 4.02176 31.5874 4.01033 31.5805C3.99891 31.5735 3.98989 31.5632 3.98447 31.551C3.97906 31.5387 3.97751 31.5251 3.98003 31.512C4.13592 30.8047 4.51991 28.1201 1.66132 26.8877L1.15918 26.3101C1.15918 26.3101 1.48738 11.8169 12.4688 11.8169C18.0892 11.8153 22.6364 16.2722 22.6364 16.2722Z" fill="#2D2F34"/>
</g>
<path d="M43.9545 34.5026C48.713 34.5026 52.0247 32.2198 52.2498 27.3649H45.6264C45.4657 28.233 44.8548 28.7153 43.9867 28.7153C43.4079 28.7153 42.9256 28.458 42.572 27.9436C42.2183 27.4292 42.0254 26.6897 42.0254 25.8216C42.0254 24.9213 42.2183 24.2461 42.6041 23.6995C42.99 23.1529 43.5044 22.8636 44.1474 22.8636C45.0477 22.8636 45.6586 23.3137 45.8515 24.214H52.4748C52.2498 19.359 48.906 17.0762 44.1153 17.0762C40.9001 17.0762 38.3279 18.2015 36.8167 20.3878C35.8522 21.7704 35.2734 23.6031 35.2734 25.7894C35.2734 28.0079 35.82 29.8406 36.8167 31.2553C38.3279 33.4095 40.8358 34.5026 43.9545 34.5026Z" fill="#2D2F34"/>
<path d="M62.6434 34.5026C65.8907 34.5026 68.5594 33.1844 70.1027 30.9338C71.0672 29.5191 71.6138 27.7828 71.6138 25.7894C71.6138 23.796 71.0672 22.0598 70.1027 20.6451C68.5594 18.3944 65.8907 17.0762 62.6434 17.0762C59.396 17.0762 56.7274 18.3944 55.1841 20.6451C54.2195 22.0598 53.6729 23.796 53.6729 25.7894C53.6729 27.7828 54.2195 29.5191 55.1841 30.9338C56.7274 33.1844 59.396 34.5026 62.6434 34.5026ZM62.6434 28.7153C61.936 28.7153 61.3573 28.3937 60.9715 27.815C60.6178 27.3006 60.4249 26.6254 60.4249 25.7894C60.4249 24.9535 60.6178 24.2783 60.9715 23.7638C61.3573 23.1851 61.936 22.8636 62.6434 22.8636C63.3507 22.8636 63.9295 23.1851 64.3153 23.7638C64.669 24.2783 64.8619 24.9535 64.8619 25.7894C64.8619 26.6254 64.669 27.3006 64.3153 27.815C63.9295 28.3937 63.3507 28.7153 62.6434 28.7153Z" fill="#2D2F34"/>
<path d="M80.7656 33.9882V24.857C80.7656 23.6674 81.2479 23.1851 82.116 23.1851C82.8234 23.1851 83.1449 23.6031 83.1449 24.5033V33.9882H89.8969V24.857C89.8969 23.7317 90.4434 23.1851 91.2472 23.1851C91.9546 23.1851 92.2761 23.6031 92.2761 24.5033V33.9882H99.0281V23.0565C99.0281 19.1982 97.3562 17.0762 94.3339 17.0762C91.826 17.0762 89.6718 18.523 88.9644 21.8347H88.1606C88.1606 18.6838 86.6495 17.0762 84.6239 17.0762C82.3411 17.0762 80.7656 18.6516 79.994 21.8347H79.1902L80.7656 17.5906H74.0137V33.9882H80.7656Z" fill="#2D2F34"/>
<path d="M108.993 33.9882V24.857C108.993 23.6674 109.476 23.1851 110.344 23.1851C111.051 23.1851 111.373 23.6031 111.373 24.5033V33.9882H118.124V24.857C118.124 23.7317 118.671 23.1851 119.475 23.1851C120.182 23.1851 120.504 23.6031 120.504 24.5033V33.9882H127.256V23.0565C127.256 19.1982 125.584 17.0762 122.562 17.0762C120.054 17.0762 117.899 18.523 117.192 21.8347H116.388C116.388 18.6838 114.877 17.0762 112.852 17.0762C110.569 17.0762 108.993 18.6516 108.222 21.8347H107.418L108.993 17.5906H102.241V33.9882H108.993Z" fill="#2D2F34"/>
<path d="M136.77 34.4706C139.6 34.4706 141.625 33.7311 142.912 32.445C143.78 31.5769 144.23 30.4516 144.23 29.0369C144.23 26.1432 142.751 24.632 139.15 23.7639L137.028 23.2495C135.935 22.9923 135.645 22.7351 135.645 22.3492C135.645 22.1563 135.709 21.9956 135.838 21.8669C136.031 21.674 136.353 21.5776 136.867 21.5776C137.703 21.5776 138.314 22.0277 138.314 22.7994V22.8958H144.423V22.7994C144.423 19.1662 141.786 17.1084 137.092 17.1084C134.263 17.1084 132.141 17.8479 130.854 19.134C129.986 20.0021 129.536 21.1274 129.536 22.4135C129.536 25.1786 130.951 26.8184 133.652 27.4614L136.931 28.2331C137.671 28.3938 137.992 28.7154 137.992 29.1333C137.992 29.3906 137.928 29.5513 137.799 29.6799C137.606 29.8728 137.285 29.9693 136.77 29.9693C135.935 29.9693 135.388 29.5835 135.388 28.8761V28.8118H129.343V28.8761C129.343 32.4772 131.98 34.4706 136.77 34.4706Z" fill="#2D2F34"/>
<path d="M154.672 34.5026C157.92 34.5026 160.588 33.1844 162.132 30.9338C163.096 29.5191 163.643 27.7828 163.643 25.7894C163.643 23.796 163.096 22.0598 162.132 20.6451C160.588 18.3944 157.92 17.0762 154.672 17.0762C151.425 17.0762 148.756 18.3944 147.213 20.6451C146.249 22.0598 145.702 23.796 145.702 25.7894C145.702 27.7828 146.249 29.5191 147.213 30.9338C148.756 33.1844 151.425 34.5026 154.672 34.5026ZM154.672 28.7153C153.965 28.7153 153.386 28.3937 153.001 27.815C152.647 27.3006 152.454 26.6254 152.454 25.7894C152.454 24.9535 152.647 24.2783 153.001 23.7638C153.386 23.1851 153.965 22.8636 154.672 22.8636C155.38 22.8636 155.959 23.1851 156.344 23.7638C156.698 24.2783 156.891 24.9535 156.891 25.7894C156.891 26.6254 156.698 27.3006 156.344 27.815C155.959 28.3937 155.38 28.7153 154.672 28.7153Z" fill="#2D2F34"/>
<path d="M172.795 33.9882V24.9856C172.795 23.7638 173.245 23.2172 173.888 23.2172C174.564 23.2172 174.917 23.6352 174.917 24.8248V26.979H181.669V22.735C181.669 19.0375 180.19 17.0762 177.425 17.0762C174.596 17.0762 173.085 18.4266 171.606 22.3491H170.802L172.634 17.5906H166.043V33.9882H172.795Z" fill="#2D2F34"/>
</g>
<defs>
<clipPath id="clip0_854_20476">
<rect width="182" height="44" fill="white" transform="translate(0.5)"/>
</clipPath>
</defs>
</svg>
