<svg width="169" height="42" viewBox="0 0 169 42" fill="none" xmlns="http://www.w3.org/2000/svg">
<path d="M11.7976 33.7392C13.7022 33.7392 15.1224 33.0756 16.1554 31.7152L16.22 31.7483V33.4406H21.0298V17.2151H15.9617V18.9073L15.8973 18.9405C14.7997 17.6133 13.2179 16.9165 11.5394 16.9165C7.47202 16.9165 4.34082 20.3673 4.34082 25.3444C4.34082 30.3548 7.47202 33.7392 11.7976 33.7392ZM12.8629 29.1602C10.8615 29.1602 9.47342 27.6338 9.47342 25.3444C9.47342 23.0218 10.926 21.4955 12.8629 21.4955C14.7351 21.4955 16.1878 23.1213 16.1878 25.3444C16.1878 27.6671 14.6706 29.1602 12.8629 29.1602Z" fill="#2F2F30"/>
<path d="M31.0594 40.309C37.4509 40.309 39.5815 36.5927 39.5815 31.317V17.2151H34.5135V18.8078H34.4489C33.2546 17.5469 31.6406 16.9165 29.9296 16.9165C25.9591 16.9165 22.9248 20.3341 22.9248 25.1454C22.9248 29.7574 25.9591 33.1418 30.2202 33.1418C32.0602 33.1418 33.5129 32.4783 34.5781 31.3501L34.6427 31.3833V32.8765C34.6427 34.5686 33.2546 35.9623 30.5108 35.9623C28.7675 35.9623 27.0245 35.3318 25.7008 34.5355L24.571 38.7494C26.5079 39.8444 28.5093 40.309 31.0594 40.309ZM31.4145 28.5298C29.51 28.5298 28.0573 27.1361 28.0573 25.0458C28.0573 22.9554 29.4778 21.5286 31.4145 21.5286C33.2868 21.5286 34.7395 22.9554 34.7395 25.0126C34.7395 27.0699 33.319 28.5298 31.4145 28.5298Z" fill="#2F2F30"/>
<path d="M50.0651 33.7392C55.0363 33.7392 58.587 30.3215 58.587 25.3444C58.587 20.3341 55.0363 16.9165 50.0651 16.9165C44.9648 16.9165 41.5107 20.4005 41.5107 25.3444C41.5107 30.2552 44.9648 33.7392 50.0651 33.7392ZM50.0651 29.1602C48.0637 29.1602 46.611 27.5011 46.611 25.3444C46.611 23.1213 48.0313 21.5286 50.0651 21.5286C52.0342 21.5286 53.4867 23.0881 53.4867 25.3444C53.4867 27.5676 51.9696 29.1602 50.0651 29.1602Z" fill="#2F2F30"/>
<path d="M60.6484 33.4406H65.6841V26.1408C65.6841 24.0172 66.9108 22.4577 69.2996 22.4577C69.5579 22.4577 70.0097 22.4908 70.4939 22.5241V16.9165H70.3002C68.5571 16.9165 66.9108 17.8124 65.7487 19.4714H65.6841V17.2151H60.6484V33.4406Z" fill="#2F2F30"/>
<path d="M78.5047 33.7392C80.4092 33.7392 81.8296 33.0756 82.8625 31.7152L82.9272 31.7483V33.4406H87.7369V17.2151H82.6689V18.9073L82.6043 18.9405C81.5068 17.6133 79.9251 16.9165 78.2465 16.9165C74.1791 16.9165 71.0479 20.3673 71.0479 25.3444C71.0479 30.3548 74.1792 33.7392 78.5047 33.7392ZM79.5699 29.1602C77.5686 29.1602 76.1805 27.6338 76.1805 25.3444C76.1805 23.0218 77.6331 21.4955 79.5699 21.4955C81.4422 21.4955 82.8948 23.1213 82.8948 25.3444C82.8948 27.6671 81.3776 29.1602 79.5699 29.1602Z" fill="#2F2F30"/>
<path d="M92.0479 40.01H96.2766V31.6486L96.3412 31.6154C97.4386 32.9758 98.9882 33.7389 100.957 33.7389C105.347 33.7389 108.543 30.3877 108.543 25.3774C108.543 20.4666 105.347 16.9827 101.086 16.9827C99.1495 16.9827 97.471 17.7126 96.3412 19.073H96.2766V17.2149H92.0479V40.01ZM100.215 29.8236C97.8906 29.8236 96.0829 28.0651 96.0829 25.4105C96.0829 22.7893 97.7615 20.8648 100.182 20.8648C102.442 20.8648 104.25 22.6233 104.25 25.4105C104.25 27.9987 102.571 29.8236 100.215 29.8236Z" fill="#2F2F30"/>
<path d="M116.428 33.739C118.203 33.739 119.882 32.976 121.076 31.4828L121.141 31.5159V33.4404H125.402V17.2151H121.141V25.1121C121.141 28.2312 119.494 29.8238 117.654 29.8238C115.685 29.8238 114.814 28.8284 114.814 25.8752V17.2151H110.617V27.0034C110.617 31.9473 113.006 33.739 116.428 33.739Z" fill="#2F2F30"/>
<path d="M128.7 33.4402H132.929V9.01929H128.7V33.4402Z" fill="#2F2F30"/>
<path d="M141.465 33.7389C145.596 33.7389 147.566 31.549 147.566 28.6954C147.566 25.4769 145.564 24.7138 142.143 23.4198C140.593 22.8225 139.819 22.358 139.819 21.6943C139.819 20.8316 140.658 20.4999 141.303 20.4999C142.465 20.4999 143.886 21.0307 145.08 22.2252L147.146 19.0067C145.338 17.5799 143.563 16.9827 141.4 16.9827C138.14 16.9827 135.687 18.874 135.687 21.7939C135.687 24.9461 137.946 26.207 140.56 27.1028C142.595 27.7996 143.401 28.1646 143.401 28.8614C143.401 29.6577 142.723 30.1886 141.497 30.1886C139.754 30.1886 138.398 29.5581 137.107 28.3305L135.073 31.35C136.784 32.8763 138.947 33.7389 141.465 33.7389Z" fill="#2F2F30"/>
<path d="M164.459 25.1783C164.459 20.4335 161.36 16.9827 156.906 16.9827C152.225 16.9827 148.899 20.3671 148.899 25.311C148.899 30.3877 152.321 33.7389 157.164 33.7389C160.682 33.7389 162.716 32.4117 164.039 30.6532L161.296 28.0318C160.456 29.0936 159.229 29.8567 157.454 29.8567C155.324 29.8567 153.807 28.6954 153.291 26.7378H164.363C164.395 26.4723 164.459 25.7091 164.459 25.1783ZM156.872 20.7652C158.713 20.7652 159.843 21.8934 160.263 23.6188H153.323C153.807 21.7608 155.162 20.7652 156.872 20.7652Z" fill="#2F2F30"/>
</svg>
